<svg width="27" height="29" viewBox="0 0 27 29" fill="none" xmlns="http://www.w3.org/2000/svg">
<path opacity="0.68" d="M6.075 22.475H24.975V2.175H22.95V11.2737C22.95 11.4913 22.8656 11.6544 22.6969 11.7631C22.5281 11.8719 22.3538 11.8658 22.1737 11.745L19.8112 10.1862L17.4488 11.745C17.2688 11.8658 17.0944 11.8719 16.9256 11.7631C16.7569 11.6544 16.6725 11.4913 16.6725 11.2737V2.175H6.075V22.475ZM6.075 24.65C5.535 24.65 5.0625 24.4325 4.6575 23.9975C4.2525 23.5625 4.05 23.055 4.05 22.475V2.175C4.05 1.595 4.2525 1.0875 4.6575 0.6525C5.0625 0.2175 5.535 0 6.075 0H24.975C25.515 0 25.9875 0.2175 26.3925 0.6525C26.7975 1.0875 27 1.595 27 2.175V22.475C27 23.055 26.7975 23.5625 26.3925 23.9975C25.9875 24.4325 25.515 24.65 24.975 24.65H6.075ZM2.025 29C1.485 29 1.0125 28.7825 0.6075 28.3475C0.2025 27.9125 0 27.405 0 26.825V5.4375C0 5.12333 0.0956251 4.86354 0.286875 4.65813C0.478125 4.45271 0.72 4.35 1.0125 4.35C1.305 4.35 1.54687 4.45271 1.73812 4.65813C1.92937 4.86354 2.025 5.12333 2.025 5.4375V26.825H21.9375C22.23 26.825 22.4719 26.9277 22.6631 27.1331C22.8544 27.3385 22.95 27.5983 22.95 27.9125C22.95 28.2267 22.8544 28.4865 22.6631 28.6919C22.4719 28.8973 22.23 29 21.9375 29H2.025ZM16.6725 2.175H19.8112H22.95H16.6725ZM6.075 2.175H16.6725H19.8112H22.95H24.975H6.075Z" fill="white"/>
</svg>
