<svg width="27" height="28" viewBox="0 0 27 28" fill="none" xmlns="http://www.w3.org/2000/svg">
<path opacity="0.68" d="M3.71948 24.0863C2.54631 22.8504 1.6331 21.4223 0.979862 19.8019C0.326621 18.1815 0 16.5199 0 14.8171C0 12.8122 0.339952 10.9789 1.01986 9.31731C1.69976 7.65571 2.71962 6.12457 4.07942 4.72388C5.01263 3.76263 6.17246 2.95243 7.55893 2.29328C8.94541 1.63413 10.5785 1.11918 12.4582 0.748406C14.338 0.377636 16.4643 0.144188 18.8373 0.0480627C21.2103 -0.0480628 23.85 1.10498e-07 26.7562 0.192251C26.9695 3.15841 27.0429 5.87052 26.9762 8.32859C26.9095 10.7867 26.6962 12.9907 26.3363 14.9407C25.9763 16.8906 25.4697 18.6003 24.8165 20.0696C24.1633 21.539 23.3567 22.768 22.3968 23.7567C21.037 25.1574 19.5706 26.2148 17.9975 26.9289C16.4244 27.643 14.7446 28 12.9582 28C11.1184 28 9.432 27.6773 7.89889 27.0319C6.36577 26.3865 4.97263 25.4046 3.71948 24.0863ZM7.83889 24.0863C8.50547 24.5532 9.27869 24.9102 10.1586 25.1574C11.0384 25.4046 11.9716 25.5282 12.9582 25.5282C14.3713 25.5282 15.7444 25.2261 17.0776 24.6219C18.4107 24.0177 19.6239 23.1388 20.7171 21.9853C21.437 21.2437 22.0502 20.2756 22.5568 19.0809C23.0634 17.8862 23.4767 16.4718 23.7966 14.8377C24.1166 13.2035 24.3299 11.3565 24.4366 9.29671C24.5432 7.23688 24.5432 4.97106 24.4366 2.49926C21.9302 2.44434 19.6839 2.47867 17.6975 2.60226C15.7111 2.72585 13.958 2.95243 12.4382 3.282C10.9185 3.61157 9.61198 4.03041 8.5188 4.5385C7.42562 5.04659 6.53241 5.67141 5.83918 6.41295C4.71933 7.59392 3.86612 8.84355 3.27954 10.1618C2.69295 11.4801 2.39966 12.8259 2.39966 14.1991C2.39966 15.5174 2.67296 16.8975 3.21955 18.3394C3.76614 19.7813 4.43937 20.9416 5.23926 21.8205C6.6524 19.129 8.34549 16.7121 10.3185 14.5699C12.2916 12.4277 14.3846 10.7386 16.5977 9.5027C14.278 11.5625 12.3983 13.794 10.9585 16.1972C9.51866 18.6003 8.4788 21.23 7.83889 24.0863Z" fill="white"/>
</svg>
