<svg width="25" height="29" viewBox="0 0 25 29" fill="none" xmlns="http://www.w3.org/2000/svg">
<path opacity="0.68" d="M2.34375 26.5319H8.20312V16.2482H16.7969V26.5319H22.6562V10.4894L12.5 2.46809L2.34375 10.4894V26.5319ZM2.34375 29C1.69271 29 1.13932 28.76 0.683594 28.2801C0.227865 27.8002 0 27.2175 0 26.5319V10.4894C0 10.1054 0.0846353 9.73522 0.253906 9.37872C0.423177 9.02222 0.651042 8.73428 0.9375 8.51489L11.0938 0.493617C11.3021 0.329078 11.5234 0.205674 11.7578 0.123404C11.9922 0.0411348 12.2396 0 12.5 0C12.7604 0 13.0078 0.0411348 13.2422 0.123404C13.4766 0.205674 13.6979 0.329078 13.9062 0.493617L24.0625 8.51489C24.349 8.73428 24.5768 9.02222 24.7461 9.37872C24.9154 9.73522 25 10.1054 25 10.4894V26.5319C25 27.2175 24.7721 27.8002 24.3164 28.2801C23.8607 28.76 23.3073 29 22.6562 29H14.4531V18.7163H10.5469V29H2.34375Z" fill="white"/>
</svg>
