<svg width="32" height="21" viewBox="0 0 32 21" fill="none" xmlns="http://www.w3.org/2000/svg">
<path d="M18.8585 18.8858L27.8182 16.1843C27.6737 15.9996 27.493 15.7629 27.2763 15.4743C27.0595 15.1857 26.8066 15.0414 26.5176 15.0414H17.9192C17.8711 15.0414 17.6543 15.024 17.2689 14.9894C16.8836 14.9548 16.5103 14.8567 16.149 14.695L13.7646 14.0023C13.4756 13.91 13.2588 13.7253 13.1143 13.4482C12.9698 13.1711 12.9457 12.894 13.042 12.617C13.1384 12.3399 13.325 12.1321 13.602 11.9935C13.879 11.855 14.162 11.8435 14.451 11.9589L17.8109 13.0326C17.7627 13.0326 17.9373 13.021 18.3347 12.9979C18.7321 12.9749 19.3041 12.9633 20.0508 12.9633H20.1591C20.2073 12.9633 20.2434 12.9633 20.2675 12.9633C20.2916 12.9633 20.3277 12.9633 20.3759 12.9633C20.3759 12.6862 20.3217 12.4149 20.2133 12.1494C20.1049 11.8839 19.9183 11.6934 19.6534 11.5779L10.8021 8.35694H7.76741V15.7687L18.8585 18.8858ZM18.3889 20.8599L7.76741 17.9507C7.71924 18.5741 7.44828 19.0589 6.95454 19.4053C6.4608 19.7516 6.00921 19.9248 5.59976 19.9248H2.16765C1.56552 19.9248 1.05372 19.7228 0.632231 19.3187C0.210744 18.9146 0 18.424 0 17.8467V8.35694C0 7.77971 0.210744 7.28905 0.632231 6.88499C1.05372 6.48092 1.56552 6.27888 2.16765 6.27888H10.766C10.8864 6.27888 11.0129 6.29043 11.1453 6.31352C11.2778 6.33661 11.4042 6.37124 11.5247 6.41742L20.3759 9.60378C21.0262 9.83467 21.5741 10.2099 22.0197 10.7294C22.4653 11.2489 22.6881 11.9935 22.6881 12.9633H26.8066C27.8182 12.9633 28.6611 13.3097 29.3355 14.0023C30.0099 14.695 30.3471 15.6301 30.3471 16.8077C30.3471 17.0617 30.2869 17.2868 30.1665 17.4831C30.046 17.6793 29.8533 17.8237 29.5884 17.916L19.6172 20.8599C19.4245 20.9061 19.2198 20.9292 19.0031 20.9292C18.7863 20.9292 18.5816 20.9061 18.3889 20.8599ZM2.16765 17.8467H5.56363V8.35694H2.16765V17.8467Z" fill="#8AB77B"/>
<circle cx="22.2188" cy="4.29596" r="1.85133" transform="rotate(-13.1774 22.2188 4.29596)" fill="#8AB77B"/>
<circle cx="29.169" cy="7.99312" r="1.85133" transform="rotate(-13.1774 29.169 7.99312)" fill="#8AB77B"/>
<circle cx="27.8184" cy="2.22463" r="1.85133" transform="rotate(-13.1774 27.8184 2.22463)" fill="#8AB77B"/>
</svg>
