<svg width="26" height="29" viewBox="0 0 26 29" fill="none" xmlns="http://www.w3.org/2000/svg">
<path d="M13 17.3333C12.5907 17.3333 12.2477 17.1949 11.9708 16.9181C11.694 16.6412 11.5556 16.2981 11.5556 15.8889C11.5556 15.4796 11.694 15.1366 11.9708 14.8597C12.2477 14.5829 12.5907 14.4444 13 14.4444C13.4093 14.4444 13.7523 14.5829 14.0292 14.8597C14.306 15.1366 14.4444 15.4796 14.4444 15.8889C14.4444 16.2981 14.306 16.6412 14.0292 16.9181C13.7523 17.1949 13.4093 17.3333 13 17.3333ZM7.22222 17.3333C6.81296 17.3333 6.46991 17.1949 6.19306 16.9181C5.9162 16.6412 5.77778 16.2981 5.77778 15.8889C5.77778 15.4796 5.9162 15.1366 6.19306 14.8597C6.46991 14.5829 6.81296 14.4444 7.22222 14.4444C7.63148 14.4444 7.97454 14.5829 8.25139 14.8597C8.52824 15.1366 8.66667 15.4796 8.66667 15.8889C8.66667 16.2981 8.52824 16.6412 8.25139 16.9181C7.97454 17.1949 7.63148 17.3333 7.22222 17.3333ZM18.7778 17.3333C18.3685 17.3333 18.0255 17.1949 17.7486 16.9181C17.4718 16.6412 17.3333 16.2981 17.3333 15.8889C17.3333 15.4796 17.4718 15.1366 17.7486 14.8597C18.0255 14.5829 18.3685 14.4444 18.7778 14.4444C19.187 14.4444 19.5301 14.5829 19.8069 14.8597C20.0838 15.1366 20.2222 15.4796 20.2222 15.8889C20.2222 16.2981 20.0838 16.6412 19.8069 16.9181C19.5301 17.1949 19.187 17.3333 18.7778 17.3333ZM13 23.1111C12.5907 23.1111 12.2477 22.9727 11.9708 22.6958C11.694 22.419 11.5556 22.0759 11.5556 21.6667C11.5556 21.2574 11.694 20.9144 11.9708 20.6375C12.2477 20.3606 12.5907 20.2222 13 20.2222C13.4093 20.2222 13.7523 20.3606 14.0292 20.6375C14.306 20.9144 14.4444 21.2574 14.4444 21.6667C14.4444 22.0759 14.306 22.419 14.0292 22.6958C13.7523 22.9727 13.4093 23.1111 13 23.1111ZM7.22222 23.1111C6.81296 23.1111 6.46991 22.9727 6.19306 22.6958C5.9162 22.419 5.77778 22.0759 5.77778 21.6667C5.77778 21.2574 5.9162 20.9144 6.19306 20.6375C6.46991 20.3606 6.81296 20.2222 7.22222 20.2222C7.63148 20.2222 7.97454 20.3606 8.25139 20.6375C8.52824 20.9144 8.66667 21.2574 8.66667 21.6667C8.66667 22.0759 8.52824 22.419 8.25139 22.6958C7.97454 22.9727 7.63148 23.1111 7.22222 23.1111ZM18.7778 23.1111C18.3685 23.1111 18.0255 22.9727 17.7486 22.6958C17.4718 22.419 17.3333 22.0759 17.3333 21.6667C17.3333 21.2574 17.4718 20.9144 17.7486 20.6375C18.0255 20.3606 18.3685 20.2222 18.7778 20.2222C19.187 20.2222 19.5301 20.3606 19.8069 20.6375C20.0838 20.9144 20.2222 21.2574 20.2222 21.6667C20.2222 22.0759 20.0838 22.419 19.8069 22.6958C19.5301 22.9727 19.187 23.1111 18.7778 23.1111ZM2.16667 28.8889C1.58889 28.8889 1.08333 28.6722 0.65 28.2389C0.216667 27.8056 0 27.3 0 26.7222V4.33333C0 3.75556 0.216667 3.25 0.65 2.81667C1.08333 2.38333 1.58889 2.16667 2.16667 2.16667H4.51389V1.15556C4.51389 0.818518 4.62222 0.541667 4.83889 0.325C5.05556 0.108333 5.33241 0 5.66944 0C6.00648 0 6.28935 0.108333 6.51805 0.325C6.74676 0.541667 6.86111 0.818518 6.86111 1.15556V2.16667H19.1389V1.15556C19.1389 0.818518 19.2472 0.541667 19.4639 0.325C19.6806 0.108333 19.9574 0 20.2944 0C20.6315 0 20.9144 0.108333 21.1431 0.325C21.3718 0.541667 21.4861 0.818518 21.4861 1.15556V2.16667H23.8333C24.4111 2.16667 24.9167 2.38333 25.35 2.81667C25.7833 3.25 26 3.75556 26 4.33333V26.7222C26 27.3 25.7833 27.8056 25.35 28.2389C24.9167 28.6722 24.4111 28.8889 23.8333 28.8889H2.16667ZM2.16667 26.7222H23.8333V11.1944H2.16667V26.7222ZM2.16667 9.02778H23.8333V4.33333H2.16667V9.02778ZM2.16667 9.02778V4.33333V9.02778Z" fill="#8AB77B"/>
</svg>
