<svg width="22" height="24" viewBox="0 0 22 24" fill="none" xmlns="http://www.w3.org/2000/svg">
<path d="M4.95 18.414H20.35V1.782H18.7V9.2367C18.7 9.4149 18.6313 9.54855 18.4937 9.63765C18.3563 9.72675 18.2142 9.7218 18.0675 9.6228L16.1425 8.3457L14.2175 9.6228C14.0708 9.7218 13.9288 9.72675 13.7913 9.63765C13.6538 9.54855 13.585 9.4149 13.585 9.2367V1.782H4.95V18.414ZM4.95 20.196C4.51 20.196 4.125 20.0178 3.795 19.6614C3.465 19.305 3.3 18.8892 3.3 18.414V1.782C3.3 1.3068 3.465 0.891 3.795 0.5346C4.125 0.1782 4.51 0 4.95 0H20.35C20.79 0 21.175 0.1782 21.505 0.5346C21.835 0.891 22 1.3068 22 1.782V18.414C22 18.8892 21.835 19.305 21.505 19.6614C21.175 20.0178 20.79 20.196 20.35 20.196H4.95ZM1.65 23.76C1.21 23.76 0.825 23.5818 0.495 23.2254C0.165 22.869 0 22.4532 0 21.978V4.455C0 4.1976 0.0779168 3.98475 0.23375 3.81645C0.389583 3.64815 0.586667 3.564 0.825 3.564C1.06333 3.564 1.26042 3.64815 1.41625 3.81645C1.57208 3.98475 1.65 4.1976 1.65 4.455V21.978H17.875C18.1133 21.978 18.3104 22.0621 18.4663 22.2304C18.6221 22.3987 18.7 22.6116 18.7 22.869C18.7 23.1264 18.6221 23.3393 18.4663 23.5075C18.3104 23.6758 18.1133 23.76 17.875 23.76H1.65ZM13.585 1.782H16.1425H18.7H13.585ZM4.95 1.782H13.585H16.1425H18.7H20.35H4.95Z" fill="white"/>
</svg>
