<svg width="31" height="28" viewBox="0 0 31 28" fill="none" xmlns="http://www.w3.org/2000/svg">
<path d="M15.4 5.25C15.0967 5.25 14.8458 5.15083 14.6475 4.9525C14.4492 4.75417 14.35 4.50333 14.35 4.2V1.05C14.35 0.746667 14.4492 0.495833 14.6475 0.2975C14.8458 0.0991666 15.0967 0 15.4 0C15.7033 0 15.9542 0.0991666 16.1525 0.2975C16.3508 0.495833 16.45 0.746667 16.45 1.05V4.2C16.45 4.50333 16.3508 4.75417 16.1525 4.9525C15.9542 5.15083 15.7033 5.25 15.4 5.25ZM22.575 8.225C22.365 8.015 22.26 7.76417 22.26 7.4725C22.26 7.18083 22.365 6.93 22.575 6.72L24.78 4.515C25.0133 4.28167 25.27 4.17083 25.55 4.1825C25.83 4.19417 26.075 4.305 26.285 4.515C26.495 4.725 26.6 4.97 26.6 5.25C26.6 5.53 26.495 5.775 26.285 5.985L24.045 8.225C23.835 8.435 23.59 8.54 23.31 8.54C23.03 8.54 22.785 8.435 22.575 8.225ZM26.6 16.45C26.2967 16.45 26.0458 16.3508 25.8475 16.1525C25.6492 15.9542 25.55 15.7033 25.55 15.4C25.55 15.0967 25.6492 14.8458 25.8475 14.6475C26.0458 14.4492 26.2967 14.35 26.6 14.35H29.75C30.0533 14.35 30.3042 14.4492 30.5025 14.6475C30.7008 14.8458 30.8 15.0967 30.8 15.4C30.8 15.7033 30.7008 15.9542 30.5025 16.1525C30.3042 16.3508 30.0533 16.45 29.75 16.45H26.6ZM24.815 26.285L22.61 24.08C22.4 23.87 22.295 23.6192 22.295 23.3275C22.295 23.0358 22.4 22.785 22.61 22.575C22.82 22.365 23.0708 22.26 23.3625 22.26C23.6542 22.26 23.905 22.365 24.115 22.575L26.32 24.78C26.5533 25.0133 26.6642 25.27 26.6525 25.55C26.6408 25.83 26.53 26.075 26.32 26.285C26.11 26.495 25.865 26.6058 25.585 26.6175C25.305 26.6292 25.0483 26.5183 24.815 26.285ZM6.755 8.225L4.515 5.985C4.305 5.775 4.2 5.53 4.2 5.25C4.2 4.97 4.305 4.725 4.515 4.515C4.725 4.305 4.96417 4.19417 5.2325 4.1825C5.50083 4.17083 5.75167 4.28167 5.985 4.515L8.225 6.755C8.435 6.965 8.54 7.21 8.54 7.49C8.54 7.77 8.435 8.015 8.225 8.225C8.015 8.435 7.77 8.54 7.49 8.54C7.21 8.54 6.965 8.435 6.755 8.225ZM7 28C5.01667 28 3.35417 27.3292 2.0125 25.9875C0.670833 24.6458 0 22.9833 0 21C0 19.0633 0.688333 17.4125 2.065 16.0475C3.44167 14.6825 5.08667 14 7 14C7 14 7.01167 14 7.035 14C7.05833 14 7.08167 14 7.105 14C7.43167 11.9933 8.37667 10.325 9.94 8.995C11.5033 7.665 13.3233 7 15.4 7C17.7333 7 19.7167 7.81667 21.35 9.45C22.9833 11.0833 23.8 13.0667 23.8 15.4C23.8 17.15 23.2925 18.76 22.2775 20.23C21.2625 21.7 19.88 22.7383 18.13 23.345C18.0133 24.5117 17.4883 25.5792 16.555 26.5475C15.6217 27.5158 14.5367 28 13.3 28H7ZM7 25.9H13.3C14.14 25.9 14.8167 25.6433 15.33 25.13C15.8433 24.6167 16.1 23.94 16.1 23.1C16.1 22.26 15.8433 21.5775 15.33 21.0525C14.8167 20.5275 14.1517 20.265 13.335 20.265H11.795L11.165 18.83C10.815 17.99 10.2608 17.325 9.5025 16.835C8.74417 16.345 7.91 16.1 7 16.1C5.67 16.1 4.52083 16.5842 3.5525 17.5525C2.58417 18.5208 2.1 19.67 2.1 21C2.1 22.3767 2.5725 23.5375 3.5175 24.4825C4.4625 25.4275 5.62333 25.9 7 25.9ZM17.815 21.21C19.005 20.7433 19.95 19.9733 20.65 18.9C21.35 17.8267 21.7 16.66 21.7 15.4C21.7 13.65 21.0875 12.1625 19.8625 10.9375C18.6375 9.7125 17.15 9.1 15.4 9.1C13.8833 9.1 12.5242 9.59 11.3225 10.57C10.1208 11.55 9.415 12.81 9.205 14.35C10.115 14.7467 10.9083 15.2717 11.585 15.925C12.2617 16.5783 12.7867 17.325 13.16 18.165C14.1167 18.165 15.0208 18.4567 15.8725 19.04C16.7242 19.6233 17.3717 20.3467 17.815 21.21Z" fill="#8AB77B"/>
</svg>
