<svg width="20" height="20" viewBox="0 0 20 20" fill="none" xmlns="http://www.w3.org/2000/svg">
<path d="M4.41613 19.1885L4.40505 19.1969L4.39429 19.2057C4.36337 19.2311 4.34241 19.2428 4.33194 19.2478C4.31803 19.2431 4.29036 19.2309 4.24718 19.2007C4.19816 19.1664 4.17708 19.1424 4.16921 19.1315C4.16921 19.1314 4.16922 19.1313 4.16922 19.1312C4.16955 19.1211 4.17212 19.0947 4.18737 19.0492L4.19023 19.0406L4.19288 19.032L6.15003 12.6829L6.30931 12.1662L5.86939 11.8518L0.830074 8.25036C0.829841 8.25019 0.829608 8.25003 0.829376 8.24986C0.776894 8.21202 0.756563 8.18638 0.750001 8.17628C0.749996 8.17562 0.749999 8.17485 0.750017 8.17396C0.750207 8.16456 0.752237 8.14006 0.765788 8.0975C0.779404 8.05473 0.791902 8.03355 0.797063 8.02591C0.809245 8.02174 0.83901 8.01457 0.896272 8.01457H7.15323H7.71107L7.87153 7.48032L9.85834 0.865421L9.86098 0.856631L9.8634 0.847779C9.87331 0.811609 9.88281 0.797519 9.88423 0.795488C9.88514 0.794197 9.88531 0.794163 9.88488 0.794575C9.88446 0.794977 9.88495 0.794386 9.8873 0.792868C9.94966 0.752689 9.98349 0.75 10 0.75C10.0165 0.75 10.0503 0.752688 10.1127 0.792868C10.1151 0.794386 10.1155 0.794978 10.1151 0.794576C10.1147 0.794164 10.1149 0.794198 10.1158 0.795489C10.1172 0.79752 10.1267 0.81161 10.1366 0.847779L10.139 0.856631L10.1417 0.865421L12.1285 7.48032L12.2889 8.01457H12.8468H19.1037C19.161 8.01457 19.1908 8.02174 19.2029 8.02591C19.2081 8.03355 19.2206 8.05473 19.2342 8.0975C19.2478 8.14006 19.2498 8.16456 19.25 8.17396C19.25 8.17484 19.25 8.17562 19.25 8.17628C19.2434 8.18639 19.2231 8.21206 19.1705 8.24997C19.1703 8.2501 19.1701 8.25023 19.1699 8.25036L14.1306 11.8518L13.6907 12.1662L13.85 12.6829L15.8071 19.032L15.8098 19.0406L15.8126 19.0492C15.8279 19.0947 15.8304 19.1211 15.8308 19.1312C15.8308 19.1313 15.8308 19.1314 15.8308 19.1315C15.8229 19.1424 15.8018 19.1664 15.7528 19.2007C15.7096 19.2309 15.682 19.2431 15.6681 19.2478C15.6576 19.2428 15.6366 19.2311 15.6057 19.2057L15.5949 19.1969L15.5839 19.1885L10.4538 15.2904L10 14.9456L9.54625 15.2904L4.41613 19.1885ZM4.34275 19.2506C4.34275 19.2506 4.34183 19.2506 4.33996 19.2501L4.34275 19.2506ZM4.16515 19.125C4.16522 19.1249 4.1657 19.1257 4.1664 19.1274C4.16543 19.1258 4.16508 19.125 4.16515 19.125ZM0.747324 8.17147C0.747377 8.17146 0.747767 8.17215 0.748336 8.17356C0.747555 8.17218 0.74727 8.17148 0.747324 8.17147ZM0.790245 8.02881C0.7902 8.02877 0.790928 8.02832 0.792565 8.02762C0.791108 8.02851 0.79029 8.02886 0.790245 8.02881ZM19.2097 8.02882C19.2096 8.02883 19.2088 8.02847 19.2074 8.02762C19.2091 8.02835 19.2099 8.0288 19.2097 8.02882ZM19.2527 8.17147C19.2527 8.17146 19.2525 8.17217 19.2517 8.17356C19.2522 8.17216 19.2526 8.17147 19.2527 8.17147ZM15.8349 19.125C15.8349 19.125 15.8345 19.1259 15.8336 19.1274C15.8343 19.1257 15.8348 19.1249 15.8349 19.125ZM15.6573 19.2506C15.6573 19.2505 15.6582 19.2503 15.66 19.2501L15.6573 19.2506Z" stroke="#E6C369" stroke-width="1.5"/>
</svg>
