<svg width="20" height="21" viewBox="0 0 20 21" fill="none" xmlns="http://www.w3.org/2000/svg">
<path d="M4.56659 19.4706L4.5592 19.4762L4.55203 19.4821C4.44872 19.5672 4.38042 19.5821 4.34057 19.5833C4.29909 19.5844 4.22367 19.5723 4.10465 19.4886C3.98589 19.4052 3.9461 19.3366 3.93126 19.2927C3.91682 19.25 3.90755 19.1765 3.9505 19.0476L3.95063 19.0477L3.95414 19.0362L5.91129 12.6606L6.01673 12.3172L5.72483 12.1077L0.684902 8.49081C0.684728 8.49069 0.684553 8.49056 0.684379 8.49043C0.569172 8.40711 0.528563 8.33825 0.512929 8.29271C0.497826 8.24871 0.488797 8.17673 0.527753 8.05387C0.566952 7.93024 0.615418 7.87814 0.650761 7.85272C0.687127 7.82656 0.756801 7.79484 0.896272 7.79484H7.15323H7.52557L7.63226 7.43813L9.61907 0.795666L9.61921 0.795709L9.62242 0.783944C9.65373 0.669142 9.70116 0.616217 9.75268 0.582881C9.85023 0.519762 9.93017 0.5 10 0.5C10.0698 0.5 10.1498 0.519762 10.2473 0.582881C10.2988 0.616217 10.3463 0.669142 10.3776 0.783944L10.3774 0.783983L10.3809 0.795666L12.3677 7.43813L12.4744 7.79484H12.8468H19.1037C19.2432 7.79484 19.3129 7.82656 19.3492 7.85272C19.3846 7.87814 19.433 7.93024 19.4722 8.05387C19.5112 8.17673 19.5022 8.24871 19.4871 8.29271C19.4714 8.33825 19.4308 8.4071 19.3157 8.49041C19.3155 8.49054 19.3153 8.49068 19.3151 8.49081L14.2752 12.1077L13.9833 12.3172L14.0887 12.6606L16.0459 19.0362L16.0457 19.0363L16.0495 19.0476C16.0925 19.1765 16.0832 19.25 16.0687 19.2927C16.0539 19.3366 16.0141 19.4052 15.8954 19.4886C15.7763 19.5723 15.7009 19.5844 15.6594 19.5833C15.6196 19.5821 15.5513 19.5672 15.448 19.4821L15.4408 19.4762L15.4334 19.4706L10.3033 15.5563L10 15.3248L9.6967 15.5563L4.56659 19.4706Z" fill="white" stroke="white"/>
</svg>
