<svg width="17" height="18" viewBox="0 0 17 18" fill="none" xmlns="http://www.w3.org/2000/svg">
<g filter="url(#filter0_i_1018_343)">
<path d="M2.34189 15.4841C1.60323 14.6896 1.02825 13.7715 0.61695 12.7298C0.20565 11.6881 0 10.6199 0 9.52526C0 8.23639 0.214044 7.05787 0.642132 5.9897C1.07022 4.92153 1.71235 3.93722 2.56853 3.03678C3.1561 2.41883 3.88637 1.89799 4.75933 1.47425C5.63229 1.05052 6.66054 0.719471 7.84408 0.481118C9.02762 0.242766 10.3664 0.0926925 11.8605 0.0308975C13.3547 -0.0308975 15.0166 7.10345e-08 16.8465 0.12359C16.9808 2.03041 17.027 3.77391 16.985 5.3541C16.943 6.93428 16.8087 8.35115 16.5821 9.60471C16.3555 10.8583 16.0365 11.9573 15.6252 12.9019C15.2139 13.8465 14.7061 14.6366 14.1017 15.2722C13.2455 16.1726 12.3222 16.8524 11.3317 17.3114C10.3413 17.7705 9.28363 18 8.15885 18C7.00049 18 5.93867 17.7925 4.97337 17.3776C4.00808 16.9627 3.13092 16.3315 2.34189 15.4841ZM4.9356 15.4841C5.35529 15.7842 5.84214 16.0137 6.39614 16.1726C6.95013 16.3315 7.5377 16.411 8.15885 16.411C9.0486 16.411 9.91317 16.2168 10.7526 15.8283C11.5919 15.4399 12.3558 14.8749 13.0441 14.1334C13.4974 13.6567 13.8835 13.0343 14.2024 12.2663C14.5214 11.4983 14.7816 10.589 14.9831 9.5385C15.1845 8.48798 15.3188 7.30064 15.386 5.97646C15.4531 4.65228 15.4531 3.19568 15.386 1.60667C13.8079 1.57136 12.3936 1.59343 11.1429 1.67288C9.89219 1.75233 8.78839 1.89799 7.83149 2.10986C6.87459 2.32173 6.05199 2.59098 5.36369 2.91761C4.67539 3.24424 4.113 3.6459 3.67652 4.12261C2.97143 4.8818 2.43422 5.68514 2.06489 6.53261C1.69556 7.38009 1.5109 8.24522 1.5109 9.128C1.5109 9.97548 1.68297 10.8627 2.02712 11.7896C2.37127 12.7165 2.79516 13.4625 3.29879 14.0275C4.18855 12.2972 5.25457 10.7435 6.49686 9.36636C7.73916 7.98921 9.05699 6.90338 10.4504 6.10888C8.98984 7.43306 7.80631 8.86758 6.89977 10.4125C5.99323 11.9573 5.33851 13.6479 4.9356 15.4841Z" fill="#8AB77B"/>
</g>
<defs>
<filter id="filter0_i_1018_343" x="0" y="0" width="17" height="22" filterUnits="userSpaceOnUse" color-interpolation-filters="sRGB">
<feFlood flood-opacity="0" result="BackgroundImageFix"/>
<feBlend mode="normal" in="SourceGraphic" in2="BackgroundImageFix" result="shape"/>
<feColorMatrix in="SourceAlpha" type="matrix" values="0 0 0 0 0 0 0 0 0 0 0 0 0 0 0 0 0 0 127 0" result="hardAlpha"/>
<feOffset dy="4"/>
<feGaussianBlur stdDeviation="2"/>
<feComposite in2="hardAlpha" operator="arithmetic" k2="-1" k3="1"/>
<feColorMatrix type="matrix" values="0 0 0 0 0.541176 0 0 0 0 0.717647 0 0 0 0 0.482353 0 0 0 1 0"/>
<feBlend mode="normal" in2="shape" result="effect1_innerShadow_1018_343"/>
</filter>
</defs>
</svg>
