<svg width="148" height="148" viewBox="0 0 148 148" fill="none" xmlns="http://www.w3.org/2000/svg">
<path d="M80.2027 122.642C80.2027 129.085 77.7791 134.859 73.8886 139.26C69.2965 134.029 66.7772 126.885 67.8933 119.07L73.9843 75.5948L79.9476 119.07C80.1071 120.282 80.2027 121.494 80.2027 122.642Z" fill="#EA7E84"/>
<path d="M80.2027 25.3259C80.2027 26.5061 80.1071 27.6862 79.9476 28.8983L73.9843 72.3733L67.8933 28.9302C66.7772 21.0836 69.2965 13.9388 73.8886 8.73969C77.7791 13.1095 80.2027 18.8828 80.2027 25.3259Z" fill="#EA7E84"/>
<path d="M117.96 29.8871C116.939 35.6923 113.878 41.2423 108.616 45.3569L81.2549 66.7595L102.557 39.3285C106.607 34.0336 112.156 30.9397 117.96 29.8871Z" fill="#EA7E84"/>
<path d="M139.295 73.8724C134.894 77.7638 129.122 80.188 122.68 80.188C121.5 80.188 120.32 80.0923 119.108 79.9328L75.6108 74L119.076 67.8759C126.921 66.7914 134.065 69.2793 139.295 73.8724Z" fill="#EA7E84"/>
<path d="M117.928 117.922C112.188 116.869 106.735 113.807 102.653 108.608L81.3188 81.3043L108.616 102.643C113.814 106.694 116.876 112.18 117.928 117.922Z" fill="#EA7E84"/>
<path d="M66.873 66.8871L39.2885 45.4845C33.931 41.338 30.8377 35.7242 29.8491 29.8552C35.7168 30.8759 41.3613 33.9699 45.507 39.2966L66.873 66.8871Z" fill="#EA7E84"/>
<path d="M66.809 81.1768L45.3791 108.608C41.2653 113.871 35.7165 116.933 29.9126 117.953C30.965 112.148 34.0264 106.598 39.3201 102.516L66.809 81.1768Z" fill="#EA7E84"/>
<path d="M72.3897 74L28.8922 79.9647C27.6804 80.1242 26.5005 80.2199 25.3206 80.2199C18.8789 80.2199 13.1068 77.7957 8.70605 73.9043C13.936 69.3112 21.0792 66.7914 28.9241 67.9078L72.3897 74Z" fill="#EA7E84"/>
<path d="M67.8932 119.07C66.777 126.916 69.2963 134.061 73.8884 139.26C67.1597 146.884 55.9983 150.36 45.2515 145.991C33.3885 141.142 27.8716 129.053 29.8807 117.953C35.6846 116.933 41.2334 113.871 45.3472 108.608L61.1644 88.3535L66.777 81.1767L73.9841 75.5948L72.1983 88.3535L67.8932 119.07Z" fill="#EC9297"/>
<path d="M118.343 122.515C118.343 132.275 112.794 141.908 102.461 146.086C91.7147 150.424 80.5852 146.884 73.8564 139.26C77.747 134.859 80.1706 129.085 80.1706 122.642C80.1706 121.462 80.0749 120.282 79.9155 119.07L75.7379 88.3535L73.984 75.5948L81.2867 81.3043L86.8037 88.3535L102.621 108.608C106.703 113.807 112.156 116.869 117.896 117.922C118.215 119.453 118.343 120.984 118.343 122.515Z" fill="#EC9297"/>
<path d="M74.0158 72.3733L66.9044 66.8552L60.7816 59.0086L45.5064 39.2966C41.3608 33.9379 35.7482 30.844 29.8486 29.8552C27.9352 18.7871 33.4521 6.79397 45.2513 1.97759C55.9662 -2.39223 67.1276 1.08449 73.8882 8.70777C69.2961 13.9388 66.7768 21.0836 67.893 28.8983L72.1343 58.9767L74.0158 72.3733Z" fill="#EC9297"/>
<path d="M118.342 25.4535C118.342 26.9526 118.215 28.4198 117.96 29.8871C112.156 30.9397 106.607 34.0017 102.525 39.2966L87.2181 59.0086L81.2228 66.7595L74.0157 72.4052L75.8335 59.0405L79.9472 28.9302C80.1067 27.7181 80.2023 26.5379 80.2023 25.3578C80.2023 18.9147 77.7787 13.1414 73.8882 8.73967C80.585 1.1164 91.7464 -2.42412 102.493 1.91381C112.794 6.06036 118.342 15.6931 118.342 25.4535Z" fill="#EC9297"/>
<path d="M139.294 73.8724C134.064 69.2793 126.921 66.7595 119.076 67.8759L90.9808 71.831L75.61 74H75.5781L81.1907 66.7595L90.949 59.1362L108.552 45.3888C113.814 41.2741 116.875 35.7241 117.896 29.919C129.025 27.9095 141.111 33.4276 145.959 45.2931C150.391 55.9784 146.915 67.1422 139.294 73.8724Z" fill="#EC9297"/>
<path d="M146.118 102.484C141.941 112.818 132.31 118.336 122.552 118.336C121.021 118.336 119.459 118.209 117.928 117.922C116.876 112.18 113.814 106.726 108.616 102.643L90.3434 88.3534L81.3186 81.3043L75.6104 74L90.9812 76.1052L119.108 79.9646C120.32 80.1241 121.5 80.2198 122.68 80.2198C129.121 80.2198 134.893 77.7957 139.294 73.9043C146.916 80.5707 150.455 91.7345 146.118 102.484Z" fill="#EC9297"/>
<path d="M72.4214 74L56.2533 71.7354L28.9239 67.9078C21.079 66.7914 13.9357 69.3112 8.70582 73.9043C1.11608 67.1423 -2.39179 55.9785 1.9771 45.2612C6.79244 33.4595 18.783 27.9414 29.8487 29.8552C30.8691 35.7242 33.9624 41.338 39.288 45.4845L56.7317 59.0086L66.8726 66.8871L72.4214 74Z" fill="#EC9297"/>
<path d="M72.4211 74L66.8085 81.1767L57.5605 88.3534L39.3196 102.484C34.0259 106.598 30.9326 112.116 29.9121 117.922C28.4452 118.177 26.9783 118.304 25.4795 118.304C15.7212 118.304 6.05864 112.754 1.91298 102.452C-2.42402 91.7026 1.11574 80.5707 8.73737 73.8724C13.1381 77.7638 18.9102 80.1879 25.3519 80.1879C26.5318 80.1879 27.7117 80.0922 28.9235 79.9328L56.253 76.2009L72.4211 74Z" fill="#EC9297"/>
</svg>
