<svg width="22" height="23" viewBox="0 0 22 23" fill="none" xmlns="http://www.w3.org/2000/svg">
<path d="M3.03068 19.6259C2.07477 18.6189 1.33068 17.4552 0.798406 16.1349C0.266135 14.8145 0 13.4606 0 12.0732C0 10.4395 0.276998 8.94578 0.830994 7.59189C1.38499 6.23799 2.21598 4.99039 3.32398 3.84909C4.08436 3.06585 5.02941 2.40568 6.15913 1.8686C7.28885 1.33152 8.61953 0.911922 10.1512 0.609813C11.6828 0.307704 13.4154 0.117487 15.3489 0.0391622C17.2825 -0.0391623 19.4333 9.00355e-08 21.8014 0.156649C21.9752 2.57352 22.0349 4.78339 21.9806 6.78626C21.9263 8.78913 21.7525 10.585 21.4592 12.1739C21.1659 13.7627 20.7531 15.1558 20.2209 16.353C19.6886 17.5503 19.0314 18.5517 18.2493 19.3573C17.1413 20.4986 15.9464 21.3602 14.6646 21.9421C13.3828 22.5239 12.0141 22.8148 10.5585 22.8148C9.05946 22.8148 7.68534 22.5519 6.43613 22.026C5.18692 21.5001 4.05177 20.7001 3.03068 19.6259ZM6.38725 19.6259C6.93038 20.0063 7.56042 20.2972 8.27735 20.4986C8.99429 20.7001 9.75467 20.8008 10.5585 20.8008C11.71 20.8008 12.8288 20.5546 13.9151 20.0623C15.0013 19.5699 15.9898 18.8538 16.8806 17.9139C17.4672 17.3097 17.9668 16.5209 18.3796 15.5474C18.7924 14.574 19.1292 13.4215 19.3899 12.09C19.6506 10.7584 19.8244 9.25348 19.9113 7.5751C19.9982 5.89672 19.9982 4.0505 19.9113 2.03644C17.8691 1.99168 16.0387 2.01965 14.4202 2.12036C12.8017 2.22106 11.3732 2.40568 10.1349 2.67422C8.89652 2.94276 7.83198 3.28404 6.94124 3.69804C6.0505 4.11204 5.32271 4.62115 4.75785 5.22536C3.84538 6.18764 3.15017 7.20586 2.67222 8.28002C2.19426 9.35419 1.95528 10.4507 1.95528 11.5697C1.95528 12.6438 2.17796 13.7683 2.62333 14.9432C3.0687 16.1181 3.61727 17.0636 4.26903 17.7797C5.42047 15.5866 6.80003 13.6173 8.4077 11.8718C10.0154 10.1262 11.7208 8.74997 13.524 7.74294C11.6339 9.42132 10.1023 11.2396 8.92911 13.1977C7.75594 15.1558 6.90866 17.2985 6.38725 19.6259Z" fill="white"/>
</svg>
