<svg width="43" height="36" viewBox="0 0 43 36" fill="none" xmlns="http://www.w3.org/2000/svg">
<path d="M14.9458 4.63472L11.9905 8.78541C11.7816 9.06851 11.6366 9.43037 11.6299 9.85173L11.3653 14.9458L7.21459 11.9905C6.93149 11.7816 6.56963 11.6366 6.14827 11.6299L1.05422 11.3653L4.00951 7.21459C4.21843 6.93149 4.36337 6.56963 4.37009 6.14827L4.63472 1.05422L8.79363 4.01537L8.82554 4.03809L8.85914 4.05825C9.09003 4.19678 9.43321 4.36194 9.85047 4.37003L14.9458 4.63472ZM4.64064 0.939811C4.64064 0.939791 4.64064 0.939799 4.64064 0.939833L4.64064 0.939811ZM11.3594 15.0602C11.3594 15.0602 11.3594 15.0602 11.3594 15.0602L11.3594 15.0602Z" stroke="white" stroke-width="2"/>
<path d="M41.716 19.2334L41.716 19.2335L41.7227 19.2338C41.8172 19.2383 41.9063 19.2897 41.9626 19.4127C42.0198 19.5377 42.0145 19.6847 41.9268 19.8118L41.9268 19.8118L41.923 19.8173L37.7784 25.903C37.5355 26.246 37.3719 26.6773 37.366 27.1777L36.9939 34.6647L36.9939 34.6647L36.9936 34.6709C36.9866 34.8333 36.9043 34.928 36.8168 34.9717C36.7333 35.0135 36.6414 35.0142 36.5433 34.9401L36.5433 34.9401L36.5378 34.936L30.7169 30.6031C30.3834 30.3451 29.9521 30.1625 29.4429 30.1554L22.284 29.7666L22.284 29.7665L22.2773 29.7662C22.1828 29.7617 22.0937 29.7103 22.0374 29.5873C21.9802 29.4623 21.9855 29.3153 22.0732 29.1882L22.0732 29.1882L22.077 29.1827L26.2217 23.0969C26.4646 22.754 26.6281 22.3227 26.634 21.8223L27.0061 14.3353L27.0061 14.3353L27.0064 14.3291C27.0134 14.1667 27.0957 14.072 27.1832 14.0283C27.2667 13.9865 27.3586 13.9858 27.4567 14.0599L27.4567 14.0599L27.4622 14.064L33.2916 18.4032L33.3236 18.427L33.3574 18.4482C33.6502 18.6319 34.0631 18.836 34.5559 18.8446L41.716 19.2334Z" stroke="white" stroke-width="2"/>
</svg>
