<svg width="26" height="28" viewBox="0 0 26 28" fill="none" xmlns="http://www.w3.org/2000/svg">
<path d="M6.90843 25.8959H18.3407L20.0239 19.233H5.22516L6.90843 25.8959ZM6.90843 28C6.44086 28 6.01419 27.8539 5.62844 27.5616C5.24269 27.2694 4.99137 26.8895 4.87448 26.4219L3.05093 19.233H22.1982L20.3746 26.4219C20.2577 26.8895 20.0064 27.2694 19.6207 27.5616C19.2349 27.8539 18.8082 28 18.3407 28H6.90843ZM2.10409 17.1289H23.145V13.622H2.10409V17.1289ZM4.97968 0.0155859C6.89674 0.342889 8.62677 1.3248 10.1698 2.96131C11.7128 4.59783 12.531 6.38631 12.6245 8.32675C12.7414 6.43306 13.5714 4.66212 15.1144 3.01392C16.6574 1.36571 18.3757 0.377957 20.2694 0.0506542C20.4564 0.0038966 20.6259 0.0564988 20.7779 0.208461C20.9299 0.360423 20.9825 0.529919 20.9357 0.71695C20.6552 2.47036 19.8018 4.07181 18.3757 5.52129C16.9496 6.97078 15.3832 7.85917 13.6766 8.18647V11.518H24.1971C24.501 11.518 24.7523 11.6173 24.951 11.816C25.1497 12.0147 25.2491 12.2661 25.2491 12.57V17.1289C25.2491 17.7133 25.0445 18.2101 24.6354 18.6193C24.2263 19.0284 23.7295 19.233 23.145 19.233H2.10409C1.51962 19.233 1.02282 19.0284 0.613693 18.6193C0.204564 18.2101 0 17.7133 0 17.1289V12.57C0 12.2661 0.09936 12.0147 0.29808 11.816C0.496799 11.6173 0.748121 11.518 1.05205 11.518H11.5725V8.18647C9.86585 7.85917 8.29947 6.97078 6.87337 5.52129C5.44726 4.07181 4.59393 2.47036 4.31339 0.71695C4.26663 0.529919 4.31923 0.354578 4.47119 0.190927C4.62316 0.0272753 4.79265 -0.0311717 4.97968 0.0155859Z" fill="#8AB77B"/>
</svg>
